# Blender 3.4.1
# www.blender.org
mtllib snake5.mtl
o snake1
v 0.360397 -0.084112 0.521520
v 0.309417 -0.219418 0.453572
v 0.217091 -0.270204 0.616220
v 0.128025 -0.330356 0.578504
v 0.044047 -0.364964 0.533874
v -0.085988 -0.357137 0.534486
v -0.221688 -0.314296 0.424846
v -0.290764 -0.223425 0.525848
v -0.330356 -0.128025 0.578504
v -0.354834 -0.023906 0.573115
v -0.344855 0.086914 0.573115
v -0.221392 0.282603 0.564647
v -0.127781 0.330276 0.579228
v -0.041819 0.365776 0.530410
v 0.090523 0.341743 0.583472
v 0.185568 0.316225 0.533415
v 0.330080 0.132386 0.573115
v 0.330279 -0.130783 -0.574640
v 0.218279 -0.309178 -0.460250
v -0.023906 -0.354834 -0.573115
v -0.152692 -0.333309 -0.534561
v -0.243157 -0.275371 -0.532563
v -0.380534 -0.030977 -0.442886
v -0.342926 0.123690 -0.539636
v -0.285073 0.238934 -0.489747
v -0.195568 0.312593 -0.529328
v -0.086554 0.345136 -0.572146
v 0.039587 0.365260 -0.529931
v 0.148068 0.338787 -0.521627
v 0.221818 0.276586 -0.577405
v 0.303351 0.207687 -0.529495
v 0.361085 0.089834 -0.488915
v 0.368183 -0.032992 -0.525473
v 0.393854 -0.094645 -0.063586
v 0.322075 0.084251 -0.646063
v 0.097606 0.307153 -0.670090
v 0.242360 -0.321162 -0.063230
v 0.097047 -0.393495 0.064263
v 0.090413 0.181521 -0.782842
v -0.044891 -0.398936 0.107888
v 0.182773 0.247960 0.696043
v -0.177759 -0.360417 -0.153614
v -0.278161 -0.290370 -0.060943
v -0.391304 -0.100792 0.059321
v -0.029613 -0.303793 -0.703056
v -0.003834 0.132145 -0.800529
v -0.359670 0.183881 0.089880
v -0.196846 0.350601 -0.068609
v -0.124469 0.379578 0.126348
v 0.338207 0.020026 0.635718
v -0.000443 0.400001 0.116973
v -0.283365 -0.185624 -0.636215
v 0.076742 0.396628 -0.067864
v 0.159537 0.370434 0.072417
v 0.323953 0.241192 -0.017341
v 0.002873 -0.308323 0.694698
v 0.398010 0.052721 -0.109330
v 0.097122 -0.157002 -0.787844
v 0.203233 -0.102160 0.770960
v 0.101754 -0.202633 0.771422
v -0.048025 -0.230836 0.767802
v -0.186599 -0.187677 0.750460
v -0.234311 -0.029016 0.767671
v -0.246807 0.088067 0.749775
v -0.199592 0.179372 0.743614
v -0.082873 0.269115 0.727715
v 0.044080 0.255465 0.750756
v 0.000326 0.156629 0.797024
v 0.153184 0.162331 0.773066
v 0.225305 0.040475 0.769883
v 0.187141 -0.186199 -0.750881
v 0.188795 -0.026685 -0.789179
v 0.082919 -0.264592 -0.732272
v 0.004933 -0.223027 -0.771864
v -0.119275 -0.204548 -0.766561
v -0.239584 -0.115164 -0.746745
v -0.263507 -0.002925 -0.748391
v -0.285893 0.097706 -0.705299
v -0.202554 0.184176 -0.739213
v -0.077759 0.213876 -0.770699
v 0.003396 0.271174 -0.739495
v 0.082873 0.269115 -0.727715
v 0.169885 0.209078 -0.741826
v 0.279574 0.120887 0.704447
v 0.265972 0.082820 -0.727746
v 0.265449 0.008447 -0.746370
v 0.174764 -0.281531 -0.649654
v 0.348195 -0.203379 0.129862
v 0.068776 0.375144 0.412547
v -0.292915 -0.097813 0.693841
v -0.328982 -0.085740 -0.634153
v 0.149343 -0.021475 0.797823
v 0.330741 -0.214556 -0.325665
v -0.188468 0.260104 0.669694
v -0.202092 0.334036 0.356568
v 0.260175 -0.219586 -0.633337
v 0.114130 -0.281456 0.705468
v -0.313343 0.046741 0.684704
v -0.175884 0.051545 0.788679
v 0.277550 0.281130 0.303009
v -0.157951 -0.053557 -0.794980
v 0.385576 0.031363 0.373801
v 0.155639 -0.365192 -0.206317
v 0.215543 -0.329854 0.329489
v 0.200043 0.249009 -0.672358
v 0.366071 0.148852 -0.281059
v 0.266100 0.211669 0.630543
v 0.296183 -0.060574 0.706530
v -0.098776 -0.114055 0.798881
v 0.085891 -0.372117 -0.419485
v -0.096827 -0.296021 0.689183
v -0.023470 -0.129495 -0.800163
v -0.009857 0.324966 -0.658930
v 0.080178 0.303247 0.683007
v -0.285578 0.182261 0.635999
v -0.331489 0.022200 -0.647294
v -0.181818 0.119583 -0.778084
v 0.259193 0.177358 -0.683350
v -0.031363 -0.385576 -0.373801
v -0.111256 -0.301619 -0.667742
v 0.201719 0.104572 -0.772451
v 0.321237 -0.012605 -0.667742
v 0.012965 -0.143008 0.798092
v 0.357293 0.156999 0.344585
v -0.153627 -0.365252 0.215530
v -0.256393 -0.213300 0.644161
v -0.178546 -0.281392 0.644659
v 0.291013 -0.099386 -0.696076
v -0.119869 0.288032 -0.693463
v -0.284994 0.275581 0.288163
v -0.091806 0.186596 0.781681
v 0.089907 -0.324367 -0.641240
v -0.048943 0.315402 0.679453
v -0.355514 -0.184436 -0.169392
v -0.179033 -0.252762 -0.692769
v -0.331723 -0.212928 0.325677
v -0.348628 0.158463 0.405568
v -0.051800 0.395686 -0.182302
v -0.387183 -0.010552 0.395878
v -0.355536 0.168343 -0.313850
v -0.254719 0.211219 -0.652143
v -0.282447 0.281835 -0.158406
v 0.281392 -0.178546 0.644659
v -0.401797 0.035570 -0.169337
v 0.242368 0.313213 -0.292124
v -0.330330 -0.195540 -0.399945
v -0.084171 0.374442 -0.400752
v 0.226813 -0.177974 0.717969
vn 0.9161 -0.3906 0.0904
vn 0.9056 -0.4235 -0.0243
vn 0.8266 -0.5330 -0.1809
vn 0.6647 -0.7321 0.1487
vn 0.7302 -0.6811 0.0537
vn 0.7401 -0.6534 -0.1591
vn 0.7541 -0.6566 -0.0128
vn 0.6859 -0.7249 -0.0635
vn 0.7156 -0.6978 0.0334
vn 0.5258 -0.8487 -0.0575
vn 0.4995 -0.8487 0.1739
vn 0.4535 -0.8912 0.0112
vn 0.4481 -0.8940 0.0035
vn 0.3736 -0.9082 -0.1888
vn 0.4014 -0.9102 -0.1018
vn 0.3267 -0.9384 0.1129
vn 0.3037 -0.9483 0.0919
vn 0.2442 -0.9685 -0.0484
vn 0.0300 -0.9992 -0.0269
vn 0.0961 -0.9943 -0.0462
vn 0.0548 -0.9871 -0.1502
vn 0.1360 -0.9690 -0.2062
vn -0.0594 -0.9940 0.0917
vn 0.0588 -0.9960 0.0671
vn -0.2901 -0.9570 0.0064
vn -0.2175 -0.9755 -0.0332
vn -0.2945 -0.9517 -0.0871
vn -0.2083 -0.9654 -0.1567
vn -0.3740 -0.9217 0.1028
vn -0.2284 -0.9708 0.0731
vn -0.5571 -0.8301 0.0239
vn -0.5489 -0.8355 0.0249
vn -0.6137 -0.7863 -0.0706
vn -0.5384 -0.8373 -0.0950
vn -0.7264 -0.6779 0.1131
vn -0.6990 -0.7136 0.0461
vn -0.8101 -0.5862 0.0052
vn -0.7788 -0.6249 -0.0550
vn -0.7338 -0.6751 -0.0759
vn -0.8008 -0.5703 -0.1831
vn -0.8788 -0.4509 0.1562
vn -0.9002 -0.4350 0.0182
vn -0.9322 -0.3256 -0.1580
vn -0.9461 -0.3117 -0.0883
vn -0.8937 -0.4042 -0.1946
vn -0.9628 -0.2181 0.1593
vn -0.9493 -0.2965 0.1047
vn -0.9521 -0.2921 0.0900
vn -0.9645 -0.2580 -0.0566
vn -0.9885 -0.1455 -0.0414
vn -0.9787 0.0881 0.1853
vn -0.9700 0.2148 0.1136
vn -0.9990 -0.0389 0.0227
vn -0.9683 0.2292 -0.0994
vn -0.9793 0.1654 -0.1163
vn -0.8857 0.4194 0.1990
vn -0.9743 0.2193 0.0517
vn -0.9780 0.2044 0.0420
vn -0.9512 0.3079 -0.0216
vn -0.8209 0.5702 -0.0304
vn -0.7904 0.6083 -0.0725
vn -0.8575 0.4935 -0.1455
vn -0.7746 0.6112 0.1627
vn -0.7936 0.5880 0.1564
vn -0.8442 0.5311 0.0723
vn -0.6399 0.7577 0.1280
vn -0.6309 0.7758 0.0073
vn -0.7800 0.6258 0.0043
vn -0.5801 0.8117 -0.0686
vn -0.6566 0.7486 -0.0917
vn -0.5893 0.8075 0.0242
vn -0.4681 0.8670 0.1709
vn -0.4391 0.8979 0.0296
vn -0.3142 0.9491 -0.0244
vn -0.3273 0.9439 -0.0433
vn -0.4156 0.9064 -0.0759
vn -0.3377 0.9286 -0.1541
vn -0.3187 0.9399 0.1223
vn -0.2880 0.9533 0.0915
vn -0.1615 0.9868 0.0135
vn -0.1573 0.9854 0.0658
vn 0.0570 0.9958 -0.0722
vn -0.0236 0.9954 -0.0933
vn -0.1008 0.9809 -0.1663
vn 0.1064 0.9783 0.1776
vn 0.0039 0.9966 0.0829
vn 0.1550 0.9868 0.0467
vn 0.0065 0.9999 -0.0155
vn 0.2276 0.9726 0.0473
vn 0.3869 0.9204 -0.0565
vn 0.2424 0.9664 -0.0851
vn 0.3254 0.9349 0.1413
vn 0.3752 0.9228 0.0873
vn 0.5930 0.8052 0.0084
vn 0.3871 0.9203 -0.0565
vn 0.5716 0.8076 -0.1449
vn 0.6967 0.6964 0.1721
vn 0.5083 0.8582 0.0722
vn 0.6860 0.7138 -0.1411
vn 0.7851 0.6152 -0.0718
vn 0.6587 0.7524 0.0016
vn 0.8210 0.5489 0.1569
vn 0.8085 0.5693 0.1490
vn 0.8323 0.5520 0.0517
vn 0.9179 0.3967 0.0077
vn 0.8164 0.5732 -0.0703
vn 0.9792 0.1880 -0.0769
vn 0.9074 0.3981 -0.1348
vn 0.9681 0.1717 0.1825
vn 0.9583 0.2485 0.1409
vn 0.9441 0.3296 0.0090
vn 0.9732 0.2272 0.0351
vn 0.9970 -0.0473 -0.0617
vn 0.9926 0.0837 -0.0884
vn 0.9838 0.0139 0.1785
vn 0.9995 -0.0205 0.0248
vn 0.9884 -0.1400 0.0590
vn 0.9539 -0.2941 0.0598
vn 0.9440 -0.3122 -0.1068
vn 0.9501 -0.2978 -0.0926
vn 0.6308 -0.3031 0.7143
vn 0.7395 -0.3830 0.5535
vn 0.8909 -0.2935 0.3466
vn 0.8706 -0.4393 0.2216
vn 0.4183 -0.5434 0.7279
vn 0.5371 -0.6499 0.5377
vn 0.6403 -0.5986 0.4814
vn 0.7578 -0.6064 0.2408
vn 0.4253 -0.4259 0.7986
vn 0.0059 -0.0044 1.0000
vn 0.1667 -0.1849 0.9685
vn 0.1936 -0.1911 0.9623
vn 0.4091 -0.8356 0.3666
vn 0.0850 -0.6536 0.7520
vn 0.1844 -0.9113 0.3682
vn 0.1787 -0.9114 0.3706
vn 0.0999 -0.6292 0.7708
vn 0.0438 -0.3528 0.9347
vn -0.1268 -0.7235 0.6786
vn -0.1338 -0.9249 0.3560
vn -0.0555 -0.9461 0.3190
vn -0.0667 -0.2836 0.9566
vn -0.4379 -0.6893 0.5772
vn -0.3357 -0.8839 0.3257
vn -0.4495 -0.8663 0.2179
vn -0.2887 -0.6413 0.7109
vn -0.2201 -0.3391 0.9147
vn -0.5628 -0.6396 0.5237
vn -0.6408 -0.7308 0.2352
vn -0.6217 -0.7442 0.2443
vn -0.6187 -0.2662 0.7392
vn -0.6877 -0.4593 0.5622
vn -0.8234 -0.4231 0.3781
vn -0.8215 -0.4961 0.2811
vn -0.3380 -0.2014 0.9193
vn -0.7514 -0.0647 0.6567
vn -0.9093 -0.1030 0.4033
vn -0.9161 -0.1973 0.3491
vn -0.2608 -0.0621 0.9634
vn -0.9504 0.0856 0.2992
vn -0.7089 0.0320 0.7045
vn -0.4434 0.0890 0.8919
vn -0.0656 0.0309 0.9974
vn -0.7088 0.4055 0.5772
vn -0.7570 0.3528 0.5500
vn -0.8800 0.3097 0.3600
vn -0.3641 0.2489 0.8975
vn -0.6361 0.5669 0.5234
vn -0.6569 0.6684 0.3490
vn -0.3371 0.2568 0.9058
vn -0.1225 0.1273 0.9843
vn -0.3609 0.8385 0.4083
vn -0.3475 0.7867 0.5102
vn -0.4689 0.8220 0.3230
vn -0.3117 0.5435 0.7794
vn -0.4091 0.6462 0.6442
vn -0.0434 0.7361 0.6755
vn -0.2111 0.9290 0.3039
vn 0.0374 0.5441 0.8382
vn -0.1102 0.4610 0.8805
vn 0.0590 0.8007 0.5961
vn 0.0772 0.9272 0.3666
vn 0.0428 0.9459 0.3217
vn 0.4135 0.8370 0.3584
vn 0.2945 0.7000 0.6506
vn 0.4050 0.8378 0.3661
vn 0.1301 0.3725 0.9188
vn 0.5355 0.4550 0.7115
vn 0.6540 0.5336 0.5363
vn 0.5800 0.7475 0.3237
vn 0.3288 0.5662 0.7558
vn 0.0020 0.0061 1.0000
vn 0.1489 0.1289 0.9804
vn 0.8362 0.4155 0.3580
vn 0.5285 0.2920 0.7971
vn 0.2519 0.1240 0.9598
vn 0.7211 0.0739 0.6889
vn 0.8139 0.0811 0.5753
vn 0.8910 0.2685 0.3662
vn 0.9221 -0.1795 0.3429
vn 0.5932 -0.0858 0.8005
vn 0.3819 -0.0521 0.9227
vn 0.5806 -0.1958 -0.7903
vn 0.6853 -0.4673 -0.5585
vn 0.8320 -0.4091 -0.3748
vn 0.3067 -0.2252 -0.9248
vn 0.5620 -0.6353 -0.5296
vn 0.5993 -0.7609 -0.2488
vn 0.0855 -0.0703 -0.9939
vn 0.4109 -0.6882 -0.5979
vn 0.3380 -0.7746 -0.5346
vn 0.4212 -0.8786 -0.2250
vn 0.2003 -0.4704 -0.8594
vn 0.1434 -0.8222 -0.5509
vn 0.0295 -0.9299 -0.3666
vn 0.0329 -0.6563 -0.7538
vn 0.0342 -0.2799 -0.9594
vn 0.1873 -0.4702 -0.8625
vn -0.1772 -0.9187 -0.3531
vn -0.2429 -0.9240 -0.2954
vn -0.1244 -0.6121 -0.7809
vn -0.0869 -0.3126 -0.9459
vn -0.2800 -0.6840 -0.6736
vn -0.2902 -0.7235 -0.6264
vn -0.4645 -0.8181 -0.3392
vn -0.5162 -0.7949 -0.3188
vn -0.1627 -0.2226 -0.9612
vn -0.4871 -0.4963 -0.7187
vn -0.6396 -0.5078 -0.5771
vn -0.6338 -0.6893 -0.3510
vn -0.3402 -0.2574 -0.9045
vn -0.7771 -0.3440 -0.5271
vn -0.7928 -0.1775 -0.5831
vn -0.8365 -0.0853 -0.5413
vn -0.9679 -0.0524 -0.2459
vn -0.4442 -0.1077 -0.8894
vn -0.9727 0.1081 -0.2053
vn -0.8213 0.0602 -0.5673
vn -0.8961 0.2714 -0.3511
vn -0.5895 0.2036 -0.7817
vn -0.3889 0.0362 -0.9206
vn -0.6961 0.4523 -0.5575
vn -0.8464 0.3981 -0.3538
vn -0.8212 0.5169 -0.2417
vn -0.5893 0.2692 -0.7617
vn -0.5369 0.6593 -0.5264
vn -0.5427 0.7572 -0.3636
vn -0.6784 0.6927 -0.2450
vn -0.1376 0.2274 -0.9640
vn -0.3140 0.4135 -0.8546
vn -0.0377 0.0014 -0.9993
vn -0.1302 0.0785 -0.9884
vn -0.3807 0.8725 -0.3062
vn -0.3266 0.5865 -0.7412
vn -0.1867 0.9076 -0.3760
vn -0.0605 0.9591 -0.2764
vn -0.1831 0.6574 -0.7310
vn -0.0984 0.8201 -0.5637
vn 0.0228 0.4530 -0.8912
vn -0.0023 0.3410 -0.9400
vn 0.1197 0.9337 -0.3375
vn 0.1051 0.8174 -0.5664
vn 0.0819 0.8350 -0.5441
vn 0.2478 0.9270 -0.2817
vn 0.1373 0.5360 -0.8329
vn 0.3922 0.7136 -0.5805
vn 0.4601 0.8235 -0.3319
vn 0.4410 0.8297 -0.3421
vn 0.2352 0.5321 -0.8133
vn 0.4000 0.7146 -0.5739
vn 0.5822 0.5696 -0.5802
vn 0.6980 0.6288 -0.3427
vn 0.7147 0.6183 -0.3270
vn 0.3280 0.3563 -0.8749
vn 0.7810 0.3105 -0.5419
vn 0.8388 0.4357 -0.3266
vn 0.9022 0.3605 -0.2368
vn 0.5974 0.3877 -0.7020
vn 0.6117 0.3718 -0.6983
vn 0.5810 0.0463 -0.8126
vn 0.1665 0.1085 -0.9801
vn 0.8156 0.1351 -0.5626
vn 0.8245 0.1168 -0.5537
vn 0.9504 0.0601 -0.3050
vn 0.9615 0.1280 -0.2432
vn 0.3967 0.2204 -0.8911
vn 0.1358 0.0942 -0.9863
vn 0.8015 -0.0860 -0.5917
vn 0.9188 -0.2111 -0.3335
vn 0.9205 -0.1833 -0.3450
vn 0.5549 -0.2400 -0.7966
vn 0.0543 -0.0055 -0.9985
s 0
f 88//1 1//1 2//1
f 88//2 93//2 34//2
f 96//3 18//3 93//3
f 104//4 2//4 3//4
f 2//5 104//5 88//5
f 93//6 19//6 96//6
f 88//7 37//7 93//7
f 19//8 93//8 37//8
f 88//9 104//9 37//9
f 103//10 19//10 37//10
f 104//11 3//11 4//11
f 37//12 104//12 38//12
f 38//13 103//13 37//13
f 132//14 19//14 110//14
f 19//15 103//15 110//15
f 4//16 5//16 104//16
f 5//17 38//17 104//17
f 110//18 103//18 38//18
f 40//19 119//19 38//19
f 119//20 110//20 38//20
f 20//21 110//21 119//21
f 20//22 132//22 110//22
f 6//23 40//23 5//23
f 40//24 38//24 5//24
f 42//25 40//25 125//25
f 119//26 40//26 42//26
f 21//27 119//27 42//27
f 21//28 20//28 119//28
f 125//29 6//29 7//29
f 125//30 40//30 6//30
f 43//31 42//31 7//31
f 42//32 125//32 7//32
f 22//33 42//33 43//33
f 22//34 21//34 42//34
f 136//35 7//35 8//35
f 43//36 7//36 136//36
f 134//37 43//37 136//37
f 134//38 146//38 43//38
f 146//39 22//39 43//39
f 52//40 22//40 146//40
f 136//41 8//41 9//41
f 134//42 136//42 44//42
f 91//43 146//43 23//43
f 23//44 146//44 134//44
f 91//45 52//45 146//45
f 139//46 9//46 10//46
f 9//47 139//47 136//47
f 139//48 44//48 136//48
f 23//49 134//49 44//49
f 144//50 23//50 44//50
f 139//51 10//51 11//51
f 137//52 139//52 11//52
f 44//53 139//53 144//53
f 140//54 24//54 144//54
f 144//55 24//55 23//55
f 137//56 11//56 115//56
f 47//57 139//57 137//57
f 144//58 139//58 47//58
f 144//59 47//59 140//59
f 47//60 142//60 140//60
f 142//61 25//61 140//61
f 25//62 24//62 140//62
f 130//63 115//63 12//63
f 115//64 130//64 137//64
f 47//65 137//65 130//65
f 95//66 130//66 12//66
f 48//67 142//67 130//67
f 47//68 130//68 142//68
f 48//69 26//69 142//69
f 25//70 142//70 26//70
f 48//71 130//71 95//71
f 95//72 12//72 13//72
f 48//73 95//73 49//73
f 49//74 138//74 48//74
f 138//75 147//75 48//75
f 147//76 26//76 48//76
f 27//77 26//77 147//77
f 13//78 14//78 95//78
f 14//79 49//79 95//79
f 138//80 49//80 51//80
f 49//81 14//81 51//81
f 53//82 28//82 138//82
f 28//83 147//83 138//83
f 28//84 27//84 147//84
f 89//85 14//85 15//85
f 89//86 51//86 14//86
f 51//87 89//87 53//87
f 138//88 51//88 53//88
f 53//89 89//89 54//89
f 29//90 53//90 54//90
f 29//91 28//91 53//91
f 15//92 16//92 89//92
f 16//93 54//93 89//93
f 145//94 54//94 100//94
f 145//95 29//95 54//95
f 30//96 29//96 145//96
f 100//97 16//97 107//97
f 100//98 54//98 16//98
f 145//99 31//99 30//99
f 31//100 145//100 55//100
f 145//101 100//101 55//101
f 124//102 107//102 17//102
f 107//103 124//103 100//103
f 124//104 55//104 100//104
f 106//105 55//105 124//105
f 106//106 31//106 55//106
f 57//107 32//107 106//107
f 32//108 31//108 106//108
f 102//109 17//109 50//109
f 17//110 102//110 124//110
f 106//111 124//111 57//111
f 124//112 102//112 57//112
f 34//113 33//113 57//113
f 32//114 57//114 33//114
f 50//115 1//115 102//115
f 57//116 102//116 34//116
f 102//117 1//117 34//117
f 34//118 1//118 88//118
f 18//119 33//119 93//119
f 93//120 33//120 34//120
f 59//121 148//121 108//121
f 108//122 148//122 143//122
f 108//123 143//123 1//123
f 2//124 1//124 143//124
f 60//125 97//125 148//125
f 148//126 97//126 3//126
f 3//127 143//127 148//127
f 3//128 2//128 143//128
f 60//129 148//129 59//129
f 109//130 123//130 92//130
f 123//131 60//131 92//131
f 92//132 60//132 59//132
f 97//133 4//133 3//133
f 61//134 56//134 97//134
f 56//135 5//135 97//135
f 97//136 5//136 4//136
f 61//137 97//137 60//137
f 123//138 61//138 60//138
f 61//139 111//139 56//139
f 111//140 6//140 56//140
f 56//141 6//141 5//141
f 123//142 109//142 61//142
f 111//143 62//143 127//143
f 111//144 127//144 6//144
f 7//145 6//145 127//145
f 62//146 111//146 61//146
f 109//147 62//147 61//147
f 126//148 127//148 62//148
f 126//149 7//149 127//149
f 8//150 7//150 126//150
f 63//151 90//151 62//151
f 90//152 126//152 62//152
f 90//153 9//153 126//153
f 9//154 8//154 126//154
f 109//155 63//155 62//155
f 63//156 98//156 90//156
f 98//157 10//157 90//157
f 90//158 10//158 9//158
f 109//159 99//159 63//159
f 98//160 11//160 10//160
f 64//161 98//161 63//161
f 99//162 64//162 63//162
f 68//163 99//163 109//163
f 64//164 65//164 115//164
f 115//165 98//165 64//165
f 98//166 115//166 11//166
f 99//167 65//167 64//167
f 94//168 115//168 65//168
f 94//169 12//169 115//169
f 99//170 131//170 65//170
f 131//171 99//171 68//171
f 94//172 133//172 13//172
f 94//173 66//173 133//173
f 94//174 13//174 12//174
f 131//175 66//175 65//175
f 66//176 94//176 65//176
f 67//177 133//177 66//177
f 133//178 14//178 13//178
f 131//179 68//179 66//179
f 68//180 67//180 66//180
f 114//181 133//181 67//181
f 114//182 15//182 133//182
f 133//183 15//183 14//183
f 15//184 41//184 16//184
f 41//185 114//185 67//185
f 41//186 15//186 114//186
f 68//187 69//187 67//187
f 69//188 84//188 41//188
f 41//189 84//189 107//189
f 41//190 107//190 16//190
f 67//191 69//191 41//191
f 109//192 92//192 68//192
f 68//193 92//193 69//193
f 84//194 17//194 107//194
f 70//195 84//195 69//195
f 92//196 70//196 69//196
f 70//197 108//197 84//197
f 84//198 108//198 50//198
f 84//199 50//199 17//199
f 108//200 1//200 50//200
f 59//201 108//201 70//201
f 92//202 59//202 70//202
f 72//203 128//203 71//203
f 128//204 96//204 71//204
f 128//205 18//205 96//205
f 58//206 72//206 71//206
f 96//207 87//207 71//207
f 96//208 19//208 87//208
f 72//209 58//209 112//209
f 73//210 71//210 87//210
f 87//211 132//211 73//211
f 19//212 132//212 87//212
f 58//213 71//213 73//213
f 45//214 73//214 132//214
f 45//215 132//215 20//215
f 73//216 45//216 74//216
f 112//217 58//217 74//217
f 58//218 73//218 74//218
f 45//219 20//219 120//219
f 120//220 20//220 21//220
f 74//221 45//221 75//221
f 112//222 74//222 75//222
f 75//223 45//223 135//223
f 135//224 45//224 120//224
f 120//225 21//225 135//225
f 135//226 21//226 22//226
f 112//227 75//227 101//227
f 75//228 135//228 76//228
f 135//229 52//229 76//229
f 135//230 22//230 52//230
f 101//231 75//231 76//231
f 52//232 91//232 76//232
f 77//233 76//233 91//233
f 91//234 116//234 77//234
f 91//235 23//235 116//235
f 101//236 76//236 77//236
f 24//237 116//237 23//237
f 78//238 77//238 116//238
f 78//239 116//239 24//239
f 117//240 77//240 78//240
f 101//241 77//241 117//241
f 78//242 141//242 79//242
f 78//243 24//243 141//243
f 24//244 25//244 141//244
f 117//245 78//245 79//245
f 141//246 129//246 79//246
f 129//247 141//247 26//247
f 25//248 26//248 141//248
f 46//249 117//249 80//249
f 80//250 117//250 79//250
f 112//251 101//251 46//251
f 46//252 101//252 117//252
f 129//253 26//253 27//253
f 79//254 129//254 80//254
f 113//255 129//255 27//255
f 113//256 27//256 28//256
f 80//257 129//257 81//257
f 129//258 113//258 81//258
f 39//259 80//259 81//259
f 46//260 80//260 39//260
f 36//261 113//261 28//261
f 82//262 81//262 36//262
f 81//263 113//263 36//263
f 36//264 28//264 29//264
f 39//265 81//265 82//265
f 36//266 105//266 83//266
f 36//267 29//267 105//267
f 105//268 29//268 30//268
f 39//269 82//269 83//269
f 82//270 36//270 83//270
f 105//271 118//271 83//271
f 105//272 30//272 118//272
f 118//273 30//273 31//273
f 121//274 39//274 83//274
f 118//275 35//275 85//275
f 118//276 31//276 35//276
f 31//277 32//277 35//277
f 83//278 118//278 121//278
f 121//279 118//279 85//279
f 85//280 72//280 121//280
f 39//281 121//281 72//281
f 86//282 85//282 35//282
f 35//283 122//283 86//283
f 122//284 35//284 33//284
f 32//285 33//285 35//285
f 72//286 85//286 86//286
f 39//287 72//287 46//287
f 128//288 86//288 122//288
f 122//289 33//289 128//289
f 128//290 33//290 18//290
f 86//291 128//291 72//291
f 46//292 72//292 112//292
